<svg width="8" height="8" viewBox="0 0 8 8" fill="none" xmlns="http://www.w3.org/2000/svg">
<g clip-path="url(#clip0_5_35)">
<path d="M3.58281 7.09043C3.48003 7.19655 3.42963 7.33392 3.43162 7.47129C3.43361 7.60866 3.48732 7.74473 3.59342 7.84824L3.60138 7.85605C3.70615 7.95371 3.84011 8.00124 3.9734 7.99928C4.10668 7.99733 4.23931 7.9459 4.34143 7.84499C5.51252 6.69525 6.67101 5.52663 7.8348 4.36842C7.83944 4.36517 7.84342 4.36191 7.8474 4.35801C7.95019 4.25189 8.00058 4.11322 7.99859 3.97585C7.99661 3.83848 7.94223 3.70176 7.83613 3.59824L7.81822 3.58132C6.65974 2.43939 5.50257 1.29356 4.34077 0.153582C4.23931 0.0533212 4.10668 0.00188887 3.9734 -6.42576e-05C3.84011 -0.00201738 3.70615 0.0455087 3.60138 0.143816L3.59143 0.153582C3.48732 0.256446 3.43361 0.391863 3.43162 0.528582C3.42963 0.6653 3.48003 0.803321 3.58281 0.909441L6.71411 3.98691L3.58281 7.09043ZM0.149787 6.96022C0.0476654 7.06569 -0.00206934 7.20306 -7.99476e-05 7.33978C0.00190944 7.47715 0.055623 7.61322 0.161724 7.71673L0.169681 7.72454C0.273793 7.8222 0.408408 7.86973 0.541697 7.86842C0.674986 7.86647 0.808276 7.81504 0.909734 7.71413C2.05629 6.58848 3.24064 5.48171 4.40244 4.36973C4.40708 4.36647 4.41172 4.36257 4.41637 4.35866C4.51915 4.25254 4.56955 4.11387 4.56756 3.9765C4.56557 3.83913 4.51119 3.70241 4.40509 3.59889C3.24528 2.49538 2.0795 1.39577 0.917029 0.293556L0.909071 0.285092C0.807612 0.184832 0.674986 0.13405 0.541697 0.132097C0.408408 0.130144 0.274456 0.17767 0.169681 0.275326L0.159734 0.285092C0.055623 0.387957 0.00190944 0.524024 -7.99476e-05 0.660092C-0.00206934 0.796811 0.0483285 0.934832 0.151114 1.04095L3.27976 3.98626L0.149787 6.96022Z" fill="#808080"/>
</g>
<defs>
<clipPath id="clip0_5_35">
<rect width="8" height="8" fill="white"/>
</clipPath>
</defs>
</svg>
