<svg width="24" height="24" viewBox="0 0 24 24" fill="none" xmlns="http://www.w3.org/2000/svg">
<g clip-path="url(#clip0_16_14)">
<path fill-rule="evenodd" clip-rule="evenodd" d="M21.7498 -0.000610352H2.24988C1.01238 -0.000610352 -0.000610352 1.01234 -0.000610352 2.24988V21.7498C-0.000610352 22.9873 1.01238 24.0003 2.24988 24.0003H21.7498C22.9873 24.0003 24.0003 22.9873 24.0003 21.7498V2.24984C24.0003 1.01234 22.9873 -0.000610352 21.7498 -0.000610352ZM13.6431 6.51696H16.3861V3.22739H13.6431C11.5308 3.22739 9.8074 4.95033 9.8074 7.06529V8.7094H7.61406V11.9998H9.80695V20.7723H13.097V11.9998H15.8373L16.3861 8.7094H13.0969V7.06529C13.0969 6.76761 13.3481 6.51651 13.6431 6.51651V6.51696Z" fill="#FFF2E5"/>
</g>
<defs>
<clipPath id="clip0_16_14">
<rect width="24" height="24" fill="white"/>
</clipPath>
</defs>
</svg>
