<svg width="44" height="36" viewBox="0 0 44 36" fill="none" xmlns="http://www.w3.org/2000/svg">
<path fill-rule="evenodd" clip-rule="evenodd" d="M3 5.88675L0.113247 3L3 0.113251L5.38675 2.5H43C43.2761 2.5 43.5 2.72386 43.5 3C43.5 3.27615 43.2761 3.5 43 3.5H5.38675L3 5.88675ZM3 20.8868L0.113247 18L3 15.1133L5.38675 17.5H43C43.2761 17.5 43.5 17.7239 43.5 18C43.5 18.2761 43.2761 18.5 43 18.5H5.38675L3 20.8868ZM0.113247 33L3 35.8868L5.38675 33.5H43C43.2761 33.5 43.5 33.2761 43.5 33C43.5 32.7239 43.2761 32.5 43 32.5H5.38675L3 30.1133L0.113247 33Z" fill="#1A0600"/>
</svg>
