<svg width="24" height="24" viewBox="0 0 24 24" fill="none" xmlns="http://www.w3.org/2000/svg">
<g clip-path="url(#clip0_16_17)">
<path fill-rule="evenodd" clip-rule="evenodd" d="M21.75 0H2.25C1.0125 0 0 1.0125 0 2.25V21.75C0 22.9875 1.0125 24 2.25 24H21.75C22.9875 24 24 22.9875 24 21.75V2.25C24 1.0125 22.9875 0 21.75 0ZM8.43938 3.65055H15.5611C18.2354 3.65055 20.4221 5.81021 20.4221 8.44868V15.5513C20.4221 18.1902 18.2354 20.3494 15.5611 20.3494H8.43938C5.76548 20.3494 3.57833 18.1902 3.57833 15.5513V8.44868C3.57833 5.81018 5.76548 3.65055 8.43938 3.65055ZM11.9548 7.49153C14.5534 7.49153 16.6626 9.60026 16.6626 12.1993C16.6626 14.7984 14.5534 16.9067 11.9549 16.9067C9.35535 16.9067 7.24703 14.7984 7.24703 12.1993C7.24703 9.60026 9.35531 7.49153 11.9548 7.49153ZM11.9548 9.0816C13.6756 9.0816 15.0725 10.4777 15.0725 12.1993C15.0725 13.9205 13.6756 15.317 11.9548 15.317C10.2332 15.317 8.83669 13.9205 8.83669 12.1993C8.83669 10.4777 10.2332 9.0816 11.9548 9.0816ZM16.5093 6.8391C16.9314 6.8391 17.2734 7.18103 17.2734 7.60313C17.2734 8.02523 16.9314 8.3676 16.5093 8.3676C16.0872 8.3676 15.7449 8.02523 15.7449 7.60313C15.7449 7.18103 16.0872 6.8391 16.5093 6.8391ZM9.02096 5.01473H14.9795C17.2167 5.01473 19.0464 6.83512 19.0464 9.05985V15.0482C19.0464 17.2729 17.2167 19.0933 14.9795 19.0933H9.02093C6.7842 19.0933 4.95405 17.2729 4.95405 15.0482V9.05989C4.95405 6.83509 6.7842 5.01473 9.02093 5.01473H9.02096Z" fill="#FFF2E5"/>
</g>
<defs>
<clipPath id="clip0_16_17">
<rect width="24" height="24" fill="white"/>
</clipPath>
</defs>
</svg>
