<svg width="119" height="30" viewBox="0 0 119 30" fill="none" xmlns="http://www.w3.org/2000/svg">
<path d="M14.048 20.864V24H0.736V0.959999H4.48V20.864H14.048ZM29.606 7.68V24H27.526C27.0673 24 26.774 23.7813 26.646 23.344L26.39 21.824C26.0487 22.1867 25.686 22.5173 25.302 22.816C24.9287 23.1147 24.5287 23.3707 24.102 23.584C23.6753 23.7973 23.2167 23.9627 22.726 24.08C22.246 24.1973 21.7287 24.256 21.174 24.256C20.278 24.256 19.4887 24.1067 18.806 23.808C18.1233 23.5093 17.5473 23.088 17.078 22.544C16.6193 22 16.2727 21.3493 16.038 20.592C15.8033 19.824 15.686 18.9813 15.686 18.064V7.68H19.126V18.064C19.126 19.1627 19.3767 20.016 19.878 20.624C20.39 21.232 21.1633 21.536 22.198 21.536C22.9553 21.536 23.6593 21.3653 24.31 21.024C24.9713 20.672 25.59 20.192 26.166 19.584V7.68H29.606ZM47.7995 24H44.5035C44.2368 24 44.0235 23.9307 43.8635 23.792C43.7142 23.6533 43.5915 23.4987 43.4955 23.328L39.7355 17.296C39.6395 17.6587 39.5115 17.9733 39.3515 18.24L35.9435 23.328C35.8262 23.4987 35.6928 23.6533 35.5435 23.792C35.4048 23.9307 35.2182 24 34.9835 24H31.9115L37.5595 15.584L32.1355 7.68H35.4315C35.6982 7.68 35.8902 7.72267 36.0075 7.808C36.1355 7.88267 36.2475 8 36.3435 8.16L40.0395 13.92C40.1355 13.568 40.2848 13.232 40.4875 12.912L43.6075 8.224C43.8208 7.86133 44.0928 7.68 44.4235 7.68H47.5755L42.1515 15.44L47.7995 24ZM62.7528 4.896C62.6354 5.088 62.5128 5.232 62.3848 5.328C62.2568 5.41333 62.0968 5.456 61.9048 5.456C61.7021 5.456 61.4728 5.37067 61.2168 5.2C60.9714 5.02933 60.6621 4.84267 60.2888 4.64C59.9261 4.42667 59.4941 4.23467 58.9928 4.064C58.4914 3.88267 57.8941 3.792 57.2008 3.792C56.5608 3.792 55.9954 3.872 55.5048 4.032C55.0248 4.192 54.6194 4.416 54.2888 4.704C53.9581 4.992 53.7074 5.33333 53.5368 5.728C53.3768 6.112 53.2968 6.53333 53.2968 6.992C53.2968 7.57867 53.4514 8.06933 53.7608 8.464C54.0701 8.848 54.4754 9.17867 54.9768 9.456C55.4888 9.73333 56.0701 9.97867 56.7208 10.192C57.3714 10.3947 58.0328 10.6133 58.7048 10.848C59.3874 11.0827 60.0541 11.3493 60.7048 11.648C61.3554 11.9467 61.9314 12.3253 62.4328 12.784C62.9448 13.2427 63.3554 13.8027 63.6648 14.464C63.9741 15.1253 64.1287 15.9307 64.1287 16.88C64.1287 17.904 63.9528 18.864 63.6008 19.76C63.2488 20.656 62.7368 21.44 62.0648 22.112C61.4034 22.7733 60.5821 23.296 59.6008 23.68C58.6301 24.064 57.5208 24.256 56.2728 24.256C55.5368 24.256 54.8168 24.1813 54.1128 24.032C53.4194 23.8933 52.7528 23.696 52.1128 23.44C51.4834 23.1733 50.8914 22.8533 50.3368 22.48C49.7821 22.1067 49.2861 21.6907 48.8488 21.232L49.9368 19.44C50.0328 19.2907 50.1554 19.1733 50.3048 19.088C50.4541 19.0027 50.6194 18.96 50.8008 18.96C51.0461 18.96 51.3181 19.0773 51.6168 19.312C51.9154 19.536 52.2728 19.7867 52.6888 20.064C53.1154 20.3307 53.6274 20.5813 54.2248 20.816C54.8221 21.04 55.5368 21.152 56.3688 21.152C57.7234 21.152 58.7688 20.8213 59.5048 20.16C60.2514 19.4987 60.6248 18.5867 60.6248 17.424C60.6248 16.7733 60.4701 16.2453 60.1608 15.84C59.8514 15.424 59.4408 15.0773 58.9288 14.8C58.4274 14.5227 57.8514 14.288 57.2008 14.096C56.5501 13.904 55.8888 13.7013 55.2168 13.488C54.5448 13.264 53.8834 13.008 53.2328 12.72C52.5821 12.4213 52.0008 12.0373 51.4888 11.568C50.9874 11.088 50.5821 10.5013 50.2728 9.808C49.9634 9.104 49.8088 8.22933 49.8088 7.184C49.8088 6.352 49.9688 5.54667 50.2888 4.768C50.6194 3.98933 51.0941 3.30133 51.7128 2.704C52.3421 2.096 53.1154 1.61067 54.0328 1.248C54.9501 0.885332 55.9954 0.703999 57.1688 0.703999C58.4914 0.703999 59.7021 0.911999 60.8008 1.328C61.9101 1.744 62.8648 2.336 63.6648 3.104L62.7528 4.896ZM70.7235 9.616C71.3955 8.95467 72.1315 8.42667 72.9315 8.032C73.7315 7.62667 74.6648 7.424 75.7315 7.424C76.6275 7.424 77.4115 7.57333 78.0835 7.872C78.7662 8.17067 79.3368 8.592 79.7955 9.136C80.2648 9.68 80.6168 10.336 80.8515 11.104C81.0862 11.8613 81.2035 12.6987 81.2035 13.616V24H77.7795V13.616C77.7795 12.5173 77.5235 11.664 77.0115 11.056C76.5102 10.448 75.7422 10.144 74.7075 10.144C73.9395 10.144 73.2248 10.32 72.5635 10.672C71.9128 11.024 71.2995 11.504 70.7235 12.112V24H67.2835V0.32H70.7235V9.616ZM92.277 7.424C93.4823 7.424 94.5703 7.62133 95.541 8.016C96.5223 8.41067 97.3543 8.97067 98.037 9.696C98.7303 10.4213 99.2637 11.3013 99.637 12.336C100.01 13.3707 100.197 14.5333 100.197 15.824C100.197 17.1147 100.01 18.2773 99.637 19.312C99.2637 20.3467 98.7303 21.232 98.037 21.968C97.3543 22.6933 96.5223 23.2533 95.541 23.648C94.5703 24.0427 93.4823 24.24 92.277 24.24C91.061 24.24 89.9623 24.0427 88.981 23.648C88.0103 23.2533 87.1783 22.6933 86.485 21.968C85.7917 21.232 85.2583 20.3467 84.885 19.312C84.5117 18.2773 84.325 17.1147 84.325 15.824C84.325 14.5333 84.5117 13.3707 84.885 12.336C85.2583 11.3013 85.7917 10.4213 86.485 9.696C87.1783 8.97067 88.0103 8.41067 88.981 8.016C89.9623 7.62133 91.061 7.424 92.277 7.424ZM92.277 21.552C93.749 21.552 94.8423 21.0613 95.557 20.08C96.2823 19.088 96.645 17.6747 96.645 15.84C96.645 14.0053 96.2823 12.592 95.557 11.6C94.8423 10.5973 93.749 10.096 92.277 10.096C90.7837 10.096 89.6743 10.5973 88.949 11.6C88.2237 12.592 87.861 14.0053 87.861 15.84C87.861 17.6747 88.2237 19.088 88.949 20.08C89.6743 21.0613 90.7837 21.552 92.277 21.552ZM106.942 19.904C107.422 20.5227 107.945 20.96 108.51 21.216C109.086 21.4613 109.721 21.584 110.414 21.584C111.758 21.584 112.804 21.0933 113.55 20.112C114.308 19.1307 114.686 17.6693 114.686 15.728C114.686 14.7253 114.601 13.872 114.43 13.168C114.26 12.4533 114.014 11.872 113.694 11.424C113.374 10.976 112.985 10.6507 112.526 10.448C112.068 10.2453 111.55 10.144 110.974 10.144C110.1 10.144 109.342 10.336 108.702 10.72C108.073 11.0933 107.486 11.632 106.942 12.336V19.904ZM106.766 10.048C107.449 9.248 108.222 8.60267 109.086 8.112C109.961 7.62133 110.974 7.376 112.126 7.376C113.044 7.376 113.876 7.56267 114.622 7.936C115.369 8.29867 116.009 8.832 116.542 9.536C117.076 10.24 117.486 11.1147 117.774 12.16C118.073 13.1947 118.222 14.384 118.222 15.728C118.222 16.9333 118.057 18.0587 117.726 19.104C117.406 20.1387 116.942 21.04 116.334 21.808C115.726 22.5653 114.99 23.1627 114.126 23.6C113.262 24.0267 112.286 24.24 111.198 24.24C110.238 24.24 109.422 24.0853 108.75 23.776C108.089 23.4667 107.486 23.04 106.942 22.496V29.424H103.502V7.68H105.582C106.052 7.68 106.35 7.89867 106.478 8.336L106.766 10.048Z" fill="#1A0600"/>
</svg>
