<svg width="50" height="50" viewBox="0 0 50 50" fill="none" xmlns="http://www.w3.org/2000/svg">
<path d="M33.3342 18.75V12.5C33.3342 7.89761 29.6031 4.16666 25.0008 4.16666C20.3984 4.16666 16.6675 7.89761 16.6675 12.5V18.75M7.48412 21.5667L6.23412 34.9C5.87872 38.691 5.70101 40.5864 6.33006 42.0506C6.88266 43.3367 7.85104 44.4002 9.07999 45.0704C10.479 45.8333 12.3828 45.8333 16.1905 45.8333H33.8111C37.6188 45.8333 39.5225 45.8333 40.9215 45.0704C42.1504 44.4002 43.119 43.3367 43.6715 42.0506C44.3006 40.5864 44.1229 38.691 43.7675 34.9L42.5175 21.5667C42.2173 18.3653 42.0673 16.7647 41.3473 15.5545C40.7133 14.4887 39.7765 13.6356 38.6563 13.1038C37.3842 12.5 35.7765 12.5 32.5611 12.5H17.4405C14.2251 12.5 12.6175 12.5 11.3454 13.1038C10.2251 13.6356 9.28831 14.4887 8.65424 15.5545C7.93431 16.7647 7.78424 18.3653 7.48412 21.5667Z" stroke="#1A0600" stroke-width="2" stroke-linecap="round" stroke-linejoin="round"/>
</svg>
