<svg width="24" height="24" viewBox="0 0 24 24" fill="none" xmlns="http://www.w3.org/2000/svg">
<g clip-path="url(#clip0_16_19)">
<path fill-rule="evenodd" clip-rule="evenodd" d="M24.0005 4.55677C23.1182 4.95142 22.1676 5.21362 21.1751 5.33054C22.192 4.72154 22.9698 3.75641 23.3409 2.60748C22.3904 3.16953 21.3341 3.58192 20.2148 3.80246C19.3148 2.84621 18.0366 2.25183 16.6205 2.25183C13.9015 2.25183 11.7002 4.45443 11.7002 7.17176C11.7002 7.55531 11.7427 7.93046 11.826 8.29233C7.73471 8.08503 4.10768 6.12644 1.67959 3.14651C1.24314 3.89832 1.01332 4.75219 1.01344 5.62151C1.01344 7.32764 1.87976 8.83668 3.20145 9.71677C2.3949 9.69284 1.6362 9.46784 0.970013 9.10331V9.16488C0.970013 11.5509 2.66595 13.5418 4.91951 13.9918C4.50671 14.1039 4.07089 14.1659 3.62179 14.1659C3.30379 14.1659 2.99726 14.1331 2.69254 14.0778C3.3219 16.0319 5.13878 17.4563 7.29049 17.4979C5.6034 18.8196 3.4845 19.6067 1.17461 19.6067C0.775988 19.6067 0.387563 19.5823 -0.000411987 19.5358C2.18318 20.9368 4.76981 21.7482 7.54871 21.7482C16.602 21.7482 21.5569 14.2456 21.5569 7.74044C21.5569 7.52429 21.552 7.31482 21.5432 7.10309C22.5048 6.41523 23.3383 5.54711 23.9983 4.55894L24.0005 4.55673L24.0005 4.55677Z" fill="#FFF2E5"/>
</g>
<defs>
<clipPath id="clip0_16_19">
<rect width="24" height="24" fill="white"/>
</clipPath>
</defs>
</svg>
